<svg width="46" height="59" viewBox="0 0 46 59" fill="none" xmlns="http://www.w3.org/2000/svg">
<path d="M43 20.6667V46.5778C43 49.8758 43 51.525 42.3771 52.7847C41.8294 53.8927 40.9551 54.7937 39.88 55.3581C38.6577 56 37.0574 56 33.8571 56H12.1429C8.94254 56 7.3424 56 6.12006 55.3581C5.04483 54.7937 4.17066 53.8927 3.62283 52.7847C3 51.525 3 49.8758 3 46.5778V12.4222C3 9.12412 3 7.47508 3.62283 6.21539C4.17066 5.10731 5.04483 4.20643 6.12006 3.64186C7.3424 3 8.94257 3 12.1429 3H25.8571M43 20.6667L25.8571 3M43 20.6667H28.7143C27.1363 20.6667 25.8571 19.3484 25.8571 17.7222V3" stroke="white" stroke-width="5" stroke-linecap="round" stroke-linejoin="round"/>
</svg>
