<svg width="22" height="28" viewBox="0 0 22 28" fill="none" xmlns="http://www.w3.org/2000/svg">
<path d="M20 10V21.7333C20 23.2268 20 23.9736 19.7197 24.544C19.4732 25.0457 19.0798 25.4537 18.596 25.7093C18.046 26 17.3258 26 15.8857 26H6.11429C4.67414 26 3.95408 26 3.40403 25.7093C2.92017 25.4537 2.5268 25.0457 2.28027 24.544C2 23.9736 2 23.2268 2 21.7333V6.26667C2 4.77319 2 4.02645 2.28027 3.45603C2.5268 2.95425 2.92017 2.54631 3.40403 2.29065C3.95408 2 4.67416 2 6.11429 2H12.2857M20 10L12.2857 2M20 10H13.5714C12.8613 10 12.2857 9.40304 12.2857 8.66667V2" stroke="#96A6BB" stroke-width="3" stroke-linecap="round" stroke-linejoin="round"/>
</svg>
