<svg width="23" height="23" viewBox="0 0 23 23" fill="none" xmlns="http://www.w3.org/2000/svg">
<path d="M9.40109 13.5943L21.6597 1.34026M9.74954 14.1454L12.5292 19.7048C13.2009 21.0482 13.5368 21.72 13.9599 21.9001C14.3271 22.0564 14.7469 22.028 15.0898 21.8239C15.4849 21.5886 15.7276 20.8778 16.213 19.4564L21.4649 4.07552C21.8879 2.83698 22.0993 2.21771 21.9546 1.80804C21.8287 1.45166 21.5484 1.17132 21.192 1.0454C20.7823 0.900669 20.163 1.11213 18.9244 1.53504L3.54356 6.78707C2.12211 7.27244 1.41138 7.51513 1.1761 7.91025C0.971917 8.25314 0.943625 8.67289 1.09994 9.04002C1.28007 9.46314 1.95181 9.79909 3.29527 10.4707L8.8546 13.2505C9.07602 13.3612 9.18671 13.4165 9.28252 13.4904C9.3677 13.556 9.44399 13.6323 9.50953 13.7174C9.58357 13.8133 9.63885 13.924 9.74954 14.1454Z" stroke="white" stroke-width="2" stroke-linecap="round" stroke-linejoin="round"/>
</svg>
